Coordinates
version=1
nRows=4
nColumns=63
inDegrees=yes

Units are S.I. units (second, meters, Newtons, ...)
If the header above contains a line with 'inDegrees', this indicates whether rotational values are in degrees (yes) or radians (no).

endheader
time	pelvis_tilt	pelvis_list	pelvis_rotation	pelvis_tx	pelvis_ty	pelvis_tz	hip_flexion_r	hip_adduction_r	hip_rotation_r	knee_angle_r	knee_angle_r_beta	ankle_angle_r	subtalar_angle_r	mtp_angle_r	hip_flexion_l	hip_adduction_l	hip_rotation_l	knee_angle_l	knee_angle_l_beta	ankle_angle_l	subtalar_angle_l	mtp_angle_l	L5_S1_Flex_Ext	L5_S1_Lat_Bending	L5_S1_axial_rotation	L4_L5_Flex_Ext	L4_L5_Lat_Bending	L4_L5_axial_rotation	L3_L4_Flex_Ext	L3_L4_Lat_Bending	L3_L4_axial_rotation	L2_L3_Flex_Ext	L2_L3_Lat_Bending	L2_L3_axial_rotation	L1_L2_Flex_Ext	L1_L2_Lat_Bending	L1_L2_axial_rotation	L1_T12_Flex_Ext	L1_T12_Lat_Bending	L1_T12_axial_rotation	Abs_r3	Abs_r2	Abs_r1	Abs_t1	Abs_t2	neck_flexion	neck_bending	neck_rotation	arm_flex_r	arm_add_r	arm_rot_r	elbow_flex_r	pro_sup_r	wrist_flex_r	wrist_dev_r	arm_flex_l	arm_add_l	arm_rot_l	elbow_flex_l	pro_sup_l	wrist_flex_l	wrist_dev_l
      2.91525424	      2.73651292	     -5.11939013	     81.26220631	      0.21825572	      0.88271019	      0.62941309	     -0.70052479	      1.78124509	    -13.23313836	     10.12000068	      0.17662733	     28.71663579	     17.28001018	      0.00000000	     -1.86368586	     -4.70212263	     -1.94206191	     12.52158259	      0.21854284	     30.82552925	     -5.75855638	      0.00000000	     -0.15392517	      0.73640253	      0.74625712	     -0.28585444	      0.97941536	      0.79289818	     -0.25288367	      1.79048910	      0.79289818	     -0.17592108	      1.79048910	      0.65297498	     -0.14293492	      1.50167203	      0.60633391	     -0.08795284	      1.14068751	      0.55969284	     -1.09947213	      8.33033265	      4.15045820	      0.00000000	      0.00000000	     17.17812503	     -0.96690293	      7.96778234	      7.12166519	     -6.94258841	    143.92170027	      3.99975121	      4.96881759	    -10.62232151	     -9.14328031	      8.56869674	     -1.56310749	    141.86837580	      6.46793305	      2.85110284	     -3.74521116	    -17.32507317
      2.93220339	      2.75349381	     -5.13451440	     81.17379642	      0.21837822	      0.88267377	      0.62930180	     -0.66624559	      1.77419491	    -13.45886191	     10.24939659	      0.17888572	     28.58240103	     17.34139383	      0.00000000	     -1.89650620	     -4.67734979	     -1.53066614	     12.53481505	      0.21877379	     30.55493009	     -6.26655981	      0.00000000	     -0.15018545	      0.74095001	      0.75441091	     -0.27890939	      0.98546351	      0.80156159	     -0.24673967	      1.80154585	      0.80156159	     -0.17164695	      1.80154585	      0.66010954	     -0.13946221	      1.51094526	      0.61295886	     -0.08581596	      1.14773156	      0.56580818	     -1.07275963	      8.38177469	      4.19580715	      0.00000000	      0.00000000	     17.43866258	     -0.81282987	      8.20020091	      7.14852668	     -6.87956065	    145.69065430	      3.75518754	      4.84969010	    -10.96251489	     -8.95836487	      8.71622108	     -1.66514549	    140.89294064	      7.02741850	      3.15228303	     -3.84655034	    -17.28704347
      2.94915254	      2.75193189	     -5.19766756	     81.20580774	      0.21833853	      0.88254242	      0.62915434	     -0.59066140	      1.76451935	    -13.74411376	     10.34355512	      0.18052909	     28.49408998	     17.37272603	      0.00000000	     -1.83609582	     -4.66467784	     -1.19539061	     12.59387778	      0.21980463	     30.33504129	     -6.52886329	      0.00000000	     -0.14036129	      0.74397255	      0.73067984	     -0.26066495	      0.98948349	      0.77634733	     -0.23059956	      1.80889486	      0.77634733	     -0.16041892	      1.80889486	      0.63934486	     -0.13033949	      1.51710883	      0.59367737	     -0.08020244	      1.15241348	      0.54800988	     -1.00258666	      8.41596631	      4.06382207	      0.00000000	      0.00000000	     17.63303810	     -0.68162856	      8.51895033	      7.22352170	     -6.80282008	    146.95884597	      3.53749110	      5.41411134	    -11.26554234	     -8.69577246	      8.77609197	     -1.72843941	    140.39773994	      7.34983403	      3.24499043	     -4.04724295	    -17.26848087
      2.96610169	      2.74176291	     -5.30120316	     81.28431824	      0.21822396	      0.88237986	      0.62893766	     -0.50449283	      1.75977582	    -14.05624536	     10.36031667	      0.18082164	     28.42739138	     17.48322902	      0.00000000	     -1.73751064	     -4.63404366	     -0.68348541	     12.60543107	      0.22000628	     30.06950641	     -6.99271852	      0.00000000	     -0.12580128	      0.74836096	      0.67939385	     -0.23362556	      0.99532008	      0.72185597	     -0.20667893	      1.81956484	      0.72185597	     -0.14377829	      1.81956484	      0.59446962	     -0.11681907	      1.52605767	      0.55200751	     -0.07188285	      1.15921113	      0.50954539	     -0.89858598	      8.46560888	      3.77858479	      0.00000000	      0.00000000	     17.74194882	     -0.62494680	      9.01754746	      7.35072531	     -6.73080299	    148.05297326	      3.36851440	      6.02919896	    -11.44169777	     -8.41819041	      8.71113231	     -1.76122295	    139.94372418	      7.47022112	      3.36480367	     -4.34384434	    -17.41963277
